<svg width="200" height="18" viewBox="0 0 1112 18" fill="none" xmlns="http://www.w3.org/2000/svg">
<path d="M737.396 11.6638C744.973 11.7418 762.185 11.9212 781.808 12.1241C801.432 12.3426 823.45 12.5689 840.655 12.6625C850.603 12.6859 860.559 12.7639 870.507 12.7249L885.433 12.7015L900.352 12.5923L907.811 12.5376L915.27 12.4206L930.181 12.1943L945.083 11.8354L952.535 11.656L959.986 11.3985L974.881 10.8835L989.761 10.1969L997.204 9.85358C999.685 9.73654 1002.16 9.56489 1004.64 9.42445L1019.5 8.53495C1039.3 7.1227 1059.09 5.5934 1078.78 3.33848C1081.86 3.00297 1085.48 2.61285 1089.17 2.21492C1092.86 1.75457 1096.61 1.30985 1099.98 0.966536C1106.71 0.287718 1111.89 0.0224186 1111.82 0.927509C1111.73 1.86381 1108.23 3.081 1102.05 4.41523C1098.96 5.08625 1095.2 5.78067 1090.87 6.4907C1086.53 7.16952 1081.61 7.75471 1076.22 8.37111C1050.11 11.258 1023.86 13.2321 997.626 14.6209C971.386 15.9786 945.154 16.7354 919.07 17.3128C899.985 17.7653 880.908 17.8668 861.831 17.9136C842.761 17.898 823.7 17.7887 804.638 17.5937C785.585 17.4064 766.539 17.2269 747.485 17.0397C728.424 16.8836 709.37 16.6105 690.308 16.2906C621.857 15.1281 553.445 12.9902 485.032 12.6937C420.747 12.2256 356.494 12.0305 292.248 11.9837C236.796 11.9056 181.374 11.8978 125.922 12.8731C119.391 12.998 112.205 13.2555 104.863 13.5051C97.5208 13.747 90.0148 13.9967 82.8599 14.2386C71.0313 14.5897 51.3066 15.1671 39.5872 15.5104C34.5234 15.6274 29.2723 15.7367 24.3255 16.0332C1.58902 17.3284 -4.45792 16.9539 3.06369 14.6053C4.71782 14.0903 2.75941 13.591 8.25237 13.0448C8.47865 13.0214 8.93118 12.9746 9.14185 12.9512C17.4593 11.9837 25.9094 11.4141 34.4376 11.0786C42.9657 10.7977 51.5719 10.5168 60.2014 10.2359C144.921 7.21635 229.711 6.57653 314.469 6.71698C366.481 6.81841 418.539 7.33338 470.442 7.55185C484.65 7.62207 498.866 7.45821 513.293 7.77811H513.043C528.102 7.88734 543.161 7.98879 558.212 8.27748C615.155 9.33862 674.594 10.8523 729.188 11.6325C731.326 11.6482 734.229 11.656 737.396 11.6638Z" fill="#563627"/>
</svg>
